<mxfile host="app.diagrams.net" agent="Mozilla/5.0 (X11; Linux x86_64) AppleWebKit/537.36 (KHTML, like Gecko) Chrome/140.0.0.0 Safari/537.36" version="28.2.6">
  <diagram name="第 1 页" id="RBTDLakMsTcFVfPzg-NT">
    <mxGraphModel dx="1385" dy="637" grid="1" gridSize="10" guides="1" tooltips="1" connect="1" arrows="1" fold="1" page="1" pageScale="1" pageWidth="827" pageHeight="1169" math="0" shadow="0">
      <root>
        <mxCell id="0" />
        <mxCell id="1" parent="0" />
        <mxCell id="eeXThbEoa6EUHzhbDJ3H-1" value="NAV2&lt;br&gt;bringup_launch.py" style="ellipse;whiteSpace=wrap;html=1;" parent="1" vertex="1">
          <mxGeometry x="170" y="300" width="130" height="50" as="geometry" />
        </mxCell>
        <mxCell id="L1FFWz3AhNdYmzXnrGuF-2" value="Display&lt;br&gt;rviz_launch.py" style="ellipse;whiteSpace=wrap;html=1;" vertex="1" parent="1">
          <mxGeometry x="170" y="120" width="130" height="50" as="geometry" />
        </mxCell>
        <mxCell id="L1FFWz3AhNdYmzXnrGuF-3" value="gazebo_ros" style="ellipse;whiteSpace=wrap;html=1;" vertex="1" parent="1">
          <mxGeometry x="-150" y="220" width="100" height="40" as="geometry" />
        </mxCell>
        <mxCell id="L1FFWz3AhNdYmzXnrGuF-4" value="nav2_test_utils&lt;br&gt;clicked_point_to_pose" style="ellipse;whiteSpace=wrap;html=1;" vertex="1" parent="1">
          <mxGeometry x="170" y="210" width="130" height="50" as="geometry" />
        </mxCell>
        <mxCell id="L1FFWz3AhNdYmzXnrGuF-6" value="turtlebot3_waffle_d435i&lt;br&gt;_simple_launch.py" style="rounded=0;whiteSpace=wrap;html=1;" vertex="1" parent="1">
          <mxGeometry x="-10" y="210" width="140" height="60" as="geometry" />
        </mxCell>
      </root>
    </mxGraphModel>
  </diagram>
</mxfile>
